{"accessors" : [{"bufferView" : 0, "byteOffset" : 0, "componentType" : 5123, "count" : 336, "type" : "SCALAR", "max" : [63], "min" : [0]}, {"bufferView" : 1, "byteOffset" : 0, "componentType" : 5126, "count" : 64, "type" : "VEC3", "max" : [3.3451883792877197, 0.26675403118133545, -0.7928521633148193], "min" : [2.9948320388793945, -0.06329979002475739, -1.1559319496154785], "name" : "POSITION"}, {"bufferView" : 1, "byteOffset" : 12, "componentType" : 5126, "count" : 64, "type" : "VEC3", "max" : [0.16273769736289978, 0.1881699562072754, 0.3590869903564453], "min" : [0.11371461302042007, 0.10442128032445908, 0.2815600633621216], "name" : "COLOR_0"}], "asset" : {"generator" : "Aspose.3D 21.5", "version" : "2.0"}, "buffers" : [{"uri" : "data:application/octet-stream;base64,", "byteLength" : 8744}], "bufferViews" : [{"buffer" : 0, "byteOffset" : 0, "byteLength" : 672, "target" : 34963}, {"buffer" : 0, "byteOffset" : 676, "byteLength" : 8064, "byteStride" : 24, "target" : 34962}], "materials" : [{"pbrMetallicRoughness" : {"baseColorFactor" : [0.8, 0.8, 0.8, 1], "metallicFactor" : 0, "roughnessFactor" : 0}, "emissiveFactor" : [0, 0, 0], "alphaMode" : "OPAQUE", "doubleSided" : false}], "meshes" : [{"primitives" : [{"attributes" : {"POSITION" : 1, "COLOR_0" : 2}, "indices" : 0, "material" : 0, "mode" : 4}]}], "nodes" : [{"mesh" : 0, "name" : "NewLayer0"}, {"children" : [0], "name" : "Root"}, {"children" : [1], "name" : "BakedMesh"}], "scene" : 0, "scenes" : [{"nodes" : [2]}]}