{"accessors" : [{"bufferView" : 0, "byteOffset" : 0, "componentType" : 5123, "count" : 336, "type" : "SCALAR", "max" : [63], "min" : [0]}, {"bufferView" : 1, "byteOffset" : 0, "componentType" : 5126, "count" : 64, "type" : "VEC3", "max" : [3.3419904708862305, 0.27439233660697937, 0.9563758969306946], "min" : [2.9980340003967285, -0.07093586027622223, 0.5958545207977295], "name" : "POSITION"}, {"bufferView" : 1, "byteOffset" : 12, "componentType" : 5126, "count" : 64, "type" : "VEC3", "max" : [0.24638891220092773, 0.14264211058616638, 0.3013685941696167], "min" : [0.12325286865234375, 0.07663851976394653, 0.158999502658844], "name" : "COLOR_0"}], "asset" : {"generator" : "Aspose.3D 21.5", "version" : "2.0"}, "buffers" : [{"uri" : "data:application/octet-stream;base64,", "byteLength" : 8744}], "bufferViews" : [{"buffer" : 0, "byteOffset" : 0, "byteLength" : 672, "target" : 34963}, {"buffer" : 0, "byteOffset" : 676, "byteLength" : 8064, "byteStride" : 24, "target" : 34962}], "materials" : [{"pbrMetallicRoughness" : {"baseColorFactor" : [0.8, 0.8, 0.8, 1], "metallicFactor" : 0, "roughnessFactor" : 0}, "emissiveFactor" : [0, 0, 0], "alphaMode" : "OPAQUE", "doubleSided" : false}], "meshes" : [{"primitives" : [{"attributes" : {"POSITION" : 1, "COLOR_0" : 2}, "indices" : 0, "material" : 0, "mode" : 4}]}], "nodes" : [{"mesh" : 0, "name" : "NewLayer2"}, {"children" : [0], "name" : "Root"}, {"children" : [1], "name" : "BakedMesh"}], "scene" : 0, "scenes" : [{"nodes" : [2]}]}