{"accessors" : [{"bufferView" : 0, "byteOffset" : 0, "componentType" : 5123, "count" : 3528, "type" : "SCALAR", "max" : [685], "min" : [0]}, {"bufferView" : 1, "byteOffset" : 0, "componentType" : 5126, "count" : 686, "type" : "VEC3", "max" : [1.1121981143951416, 1.1121981143951416, 1.1121981143951416], "min" : [-1.1121982336044312, -1.1121981143951416, -1.1121981143951416], "name" : "POSITION"}, {"bufferView" : 1, "byteOffset" : 12, "componentType" : 5126, "count" : 686, "type" : "VEC3", "max" : [0.9153951406478882, 0.9230772852897644, 0.9713449478149414], "min" : [0.36947473883628845, 0.4483092129230499, 0.671775221824646], "name" : "COLOR_0"}], "asset" : {"generator" : "Aspose.3D 21.5", "version" : "2.0"}, "buffers" : [{"uri" : "data:application/octet-stream;base64,", "byteLength" : 91736}], "bufferViews" : [{"buffer" : 0, "byteOffset" : 0, "byteLength" : 7056, "target" : 34963}, {"buffer" : 0, "byteOffset" : 7060, "byteLength" : 84672, "byteStride" : 24, "target" : 34962}], "materials" : [{"pbrMetallicRoughness" : {"baseColorFactor" : [0.8, 0.8, 0.8, 1], "metallicFactor" : 0, "roughnessFactor" : 0}, "emissiveFactor" : [0, 0, 0], "alphaMode" : "OPAQUE", "doubleSided" : false}], "meshes" : [{"primitives" : [{"attributes" : {"POSITION" : 1, "COLOR_0" : 2}, "indices" : 0, "material" : 0, "mode" : 4}]}], "nodes" : [{"mesh" : 0, "name" : "8"}, {"children" : [0], "name" : "Root"}, {"children" : [1], "name" : "BakedMesh"}], "scene" : 0, "scenes" : [{"nodes" : [2]}]}